General
Complete name                    : Papillon.mkv
Format                           : Matroska
File size                        : 2.55 GiB
Duration                         : 2h 24mn
Overall bit rate                 : 2 530 Kbps
Writing application              : HandBrake 0.9.4

Video
ID                               : 1
Format                           : AVC
Duration                         : 2h 24mn
Bit rate                         : 2 032 Kbps
Width                            : 720 pixels
Height                           : 428 pixels
Display aspect ratio             : 2.35:1
Frame rate                       : 25.000 fps
Resolution                       : 8 bits
Colorimetry                      : 4:2:0
Scan type                        : Progressive
Bits/(Pixel*Frame)               : 0.264
Stream size                      : 2.05 GiB (80%)
Writing library                  : x264 core 79


Audio
ID                               : 2
Format                           : AC-3
Format/Info                      : Audio Coding 3
Codec ID                         : A_AC3
Duration                         : 2h 24mn
Bit rate mode                    : Constant
Bit rate                         : 448 Kbps
Channel(s)                       : 6 channels
Channel positions                : Front: L C R, Side: L R, LFE
Sampling rate                    : 48.0 KHz
Stream size                      : 463 MiB (18%)
Language                         : English

Text #1
Language                         : English

Text #2
Language                         : German

Text #3
Language                         : Danish

Text #4
Language                         : Finnish

Text #5
Language                         : Norwegian

Text #6
Language                         : Swedish

Text #7
Language                         : Italian

Menu
00:00:00.000                     : Chapter 1
00:05:05.160                     : Chapter 2


